<?xml version="1.0" encoding="UTF-8" standalone="no"?>
<!-- Created with Inkscape (http://www.inkscape.org/) -->

<svg
   width="170.1187"
   height="85.109657"
   viewBox="0 0 170.1187 85.109657"
   version="1.1"
   id="svg5"
   xml:space="preserve"
   xmlns="http://www.w3.org/2000/svg"
   xmlns:svg="http://www.w3.org/2000/svg"><defs
     id="defs2" /><g
     id="layer3"
     transform="translate(-365.00001,-120.74306)"><g
       id="g9828"
       transform="rotate(-90,407.55936,163.18371)"><g
         id="g8365"><g
           id="g2553"
           clip-path="none"
           transform="matrix(1,0,0,1.0151066,4.7209464e-6,-1.8240203)"><rect
             style="fill:#cc2455;fill-opacity:1;stroke-width:11.395;stroke-linejoin:bevel;paint-order:stroke markers fill"
             id="rect2459"
             width="242.91121"
             height="372.41443"
             x="753.21283"
             y="-511.37427"
             transform="matrix(0.3499221,0,0,0.3499221,101.43419,299.68422)"
             ry="0" /><rect
             style="fill:#ae3a5c;fill-opacity:1;stroke-width:2.36676;stroke-linejoin:bevel;paint-order:stroke markers fill"
             id="rect2462-0"
             width="5.2028465"
             height="98.795914"
             x="364.89035"
             y="120.62613"
             ry="0" /><rect
             style="fill:#ae3a5c;fill-opacity:1;stroke-width:4.05737;stroke-linejoin:bevel;paint-order:stroke markers fill"
             id="rect2462-0-5"
             width="25.892834"
             height="58.34235"
             x="395.14044"
             y="143.29686"
             ry="4.6320868" /><rect
             style="fill:#b3204b;fill-opacity:1;stroke-width:3.26725;stroke-linejoin:bevel;paint-order:stroke markers fill"
             id="rect2462"
             width="85"
             height="33.351025"
             x="365"
             y="217.70807"
             ry="0" /></g><g
           id="g4296"
           transform="matrix(1.0024311,0,0,1.0175744,-0.72768693,-2.1219893)"><rect
             style="fill:#dae6d9;fill-opacity:1;stroke-width:3.54357;stroke-linejoin:bevel;paint-order:stroke markers fill"
             id="rect3049"
             width="62.687576"
             height="38.291916"
             x="375.81668"
             y="227.58987"
             ry="0" /><rect
             style="fill:#b8bfb8;fill-opacity:1;stroke-width:2.68139;stroke-linejoin:bevel;paint-order:stroke markers fill"
             id="rect3049-4"
             width="62.687576"
             height="21.925209"
             x="375.97107"
             y="265.88181"
             ry="0" /><rect
             style="fill:#ffffff;fill-opacity:1;stroke-width:4;stroke-linejoin:bevel;paint-order:stroke markers fill"
             id="rect3335"
             width="16.984318"
             height="10.499397"
             x="382.91919"
             y="235.31001" /><rect
             style="fill:#ffffff;fill-opacity:1;stroke-width:4;stroke-linejoin:bevel;paint-order:stroke markers fill"
             id="rect3335-5"
             width="16.984318"
             height="10.499397"
             x="413.33658"
             y="235.6188" /><rect
             style="fill:#ffffff;fill-opacity:1;stroke-width:6.51973;stroke-linejoin:bevel;paint-order:stroke markers fill"
             id="rect3335-5-8"
             width="56.820263"
             height="8.3377571"
             x="378.4415"
             y="268.35223" /><rect
             style="fill:#cc2455;fill-opacity:1;stroke-width:6.5664;stroke-linejoin:bevel;paint-order:stroke markers fill"
             id="rect3335-5-8-5"
             width="56.588657"
             height="8.4921598"
             x="378.51871"
             y="276.69" /></g><g
           id="g446-6-5"
           style="clip-rule:evenodd;fill-rule:evenodd;stroke-linejoin:round;stroke-miterlimit:2"
           transform="matrix(0.1798767,0,0,0.18259403,388.45964,148.47695)">
            <path
   d="m 211.5,156.5 c -1.2,-12.6 -6.9,-23.8 -14.9,-29.7 -1.4,-5.1 -3.8,-9.6 -6.9,-13.5 -0.5,-5.9 -3,-17.5 -14.7,-27.8 1.3,-1.2 2.5,-2.5 3.4,-4.1 C 188.2,77 195,67.9 195.8,61.1 201,55.9 204,49.7 204.2,43.6 204.3,40.7 203.8,38 202.7,35.7 207,31 208.4,25.6 206.6,20.2 203.7,11.8 193.5,6.3 179.8,5.7 176.1,2.3 171,0.6 164.9,0.6 c -2.6,0 -5.4,0.3 -8.1,1 C 154.6,0.5 151.9,0 148.9,0 143.8,0 138.1,1.6 133.8,4.1 133.1,4 132.5,4 131.9,4 c -6.8,0 -13.6,4.7 -17.1,7.5 -3.4,2.8 -6.5,6 -9,9.3 -2.5,-3.3 -5.6,-6.6 -9,-9.3 C 93.5,8.7 86.6,4 79.8,4 79.2,4 78.6,4 78,4.1 73.7,1.6 68,0 62.9,0 59.9,0 57.2,0.6 55,1.6 52.3,0.9 49.6,0.6 46.9,0.6 40.8,0.6 35.6,2.4 32,5.7 18.2,6.3 8,11.8 5.1,20.2 3.3,25.5 4.7,31 9,35.7 c -1.1,2.3 -1.6,5 -1.5,7.9 0.2,6.1 3.2,12.3 8.4,17.5 0.8,6.8 7.7,16 17.4,20.3 0.9,1.6 2.1,3 3.4,4.1 C 25,95.7 22.5,107.3 22,113.3 c -3.2,3.9 -5.5,8.4 -6.9,13.5 -8,5.9 -13.7,17.1 -14.9,29.7 -1.2,12.5 2.3,24.2 9.3,31.6 1,5.6 4.2,13 7.6,17.5 0.7,9.5 4.7,18.9 11.5,26.5 6.8,7.7 15.7,13 25.3,15 5.8,5.4 11.9,9.2 20.2,12.5 3.6,3.7 14.2,12.4 31.8,12.4 17.6,0 28.2,-8.8 31.8,-12.4 8.3,-3.3 14.4,-7.1 20.2,-12.5 9.6,-2 18.5,-7.3 25.3,-15 6.7,-7.6 10.8,-17 11.5,-26.5 3.4,-4.5 6.6,-11.8 7.6,-17.5 7,-7.4 10.4,-19.1 9.2,-31.6 z"
   style="fill:#1d1d1b;fill-rule:nonzero"
   id="path418-7-7" />
            <path
   d="m 131.5,18.3 c 0.7,-0.2 1.4,0.4 1.4,1.1 -0.3,3.2 1.6,2.8 2.1,2.3 5.1,-6.3 10.5,-7.8 15.3,-7.4 0.8,0.1 1.3,1.1 0.7,1.7 -1.9,2.8 0.1,3.4 0.9,2.9 7.8,-4.9 15.3,-4.9 18.2,-2.9 0.6,0.4 0.6,1.2 0.1,1.7 -2.9,2.5 -1.3,3.7 -0.3,3.3 8,-2.8 19,-0.3 22.8,2.9 0.5,0.4 0.5,1.2 0,1.6 -4.8,4.3 -7.2,7.7 -8.3,14.5 -0.2,1.9 2.9,1.5 4.3,1.2 0.7,-0.2 1.3,0.3 1.3,1 0.1,4.6 -4.2,9.6 -10.7,13.9 -0.9,0.6 -0.7,2 1.2,2 0.9,0.1 1.3,0.9 0.9,1.6 -2.3,4.3 -5.4,8.3 -16.1,11 -1,0.3 -1.1,1.6 -0.2,2.1 0.9,0.4 1,1.3 0.3,1.8 -10.6,9.1 -37.5,5.5 -40.9,-9.8 -0.1,-0.3 0,-0.6 0.2,-0.9 6.4,-8.5 21.2,-25.2 44.6,-33.9 0.9,-0.4 0.6,-1.8 -0.4,-1.6 -22.7,3.4 -38.7,16 -48.4,29.2 -0.3,0.4 -0.9,0.6 -1.4,0.3 -17,-8.7 -2.9,-35 12.4,-39.6 z"
   style="fill:#47ac4d;fill-rule:nonzero"
   id="path420-3-8" />
            <path
   d="m 30.2,59.9 c -0.4,-0.7 0,-1.5 0.9,-1.6 2,-0.1 2.1,-1.4 1.2,-2 C 25.9,52 21.5,47 21.6,42.4 c 0,-0.7 0.7,-1.2 1.3,-1 1.3,0.3 4.5,0.7 4.3,-1.2 -1.1,-6.8 -3.5,-10.2 -8.3,-14.5 -0.5,-0.4 -0.5,-1.2 0,-1.6 3.8,-3.2 14.8,-5.7 22.8,-2.9 1,0.4 2.6,-0.9 -0.3,-3.3 -0.5,-0.5 -0.5,-1.3 0.1,-1.7 3,-2.2 10.5,-2.2 18.3,2.7 0.8,0.5 2.8,0 0.9,-2.9 -0.5,-0.7 -0.1,-1.7 0.7,-1.7 4.8,-0.4 10.2,1 15.3,7.4 0.5,0.6 2.4,1 2.1,-2.3 C 78.7,18.6 79.4,18 80.2,18.3 95.5,23 109.6,49.2 92.4,58.1 91.9,58.3 91.3,58.2 91,57.8 81.3,44.6 65.3,32 42.6,28.6 c -1,-0.1 -1.4,1.3 -0.4,1.6 23.4,8.8 38.2,25.4 44.6,33.9 0.2,0.3 0.3,0.6 0.2,0.9 -3.4,15.3 -30.3,18.9 -40.9,9.8 -0.6,-0.5 -0.6,-1.4 0.3,-1.8 0.9,-0.4 0.9,-1.8 -0.2,-2.1 -10.6,-2.7 -13.7,-6.8 -16,-11 z"
   style="fill:#47ac4d;fill-rule:nonzero"
   id="path422-5-6" />
            <path
   d="m 173.8,106.8 c 4.4,11.8 1,17.4 -9.5,11.4 -8.3,-4.5 -16.1,-11.1 -22,-18.5 -7.9,-9.4 -2.8,-13.6 9.7,-11.3 9.2,2.3 18,9.6 21.8,18.4 z"
   style="fill:#cc2455;fill-rule:nonzero"
   id="path424-7-4" />
            <path
   d="m 126.8,93.5 c 15,12.5 -2.2,21.3 -20.9,21.3 C 87.2,114.8 70,106 85,93.5 c 9,-7 17.6,-7.3 20.9,-7.3 3.3,0 11.9,0.3 20.9,7.3 z"
   style="fill:#cc2455;fill-rule:nonzero"
   id="path426-3-0" />
            <path
   d="m 38,106.8 c 3.8,-8.7 12.6,-16.1 21.9,-18.3 12.4,-2.3 17.6,1.9 9.7,11.3 -5.9,7.4 -13.7,13.9 -22,18.5 -10.6,5.9 -14,0.2 -9.6,-11.5 z"
   style="fill:#cc2455;fill-rule:nonzero"
   id="path428-3-6" />
            <path
   d="m 16.3,172.1 c -3.5,-9.1 -2.6,-20.1 2.5,-28.6 5.5,-9.4 11.1,-9 13.3,-1.1 2.9,10.5 1.8,23.1 -2.9,33 -4.1,8.2 -9.2,5.5 -12.9,-3.3 z"
   style="fill:#cc2455;fill-rule:nonzero"
   id="path430-7-4" />
            <path
   d="M 56.2,233.1 C 42.9,230.3 31.6,216.9 31.1,203.3 33.2,155 102.9,241.4 56.2,233.1 Z"
   style="fill:#cc2455;fill-rule:nonzero"
   id="path432-3-1" />
            <path
   d="M 57.6,172.9 C 45.9,166.1 42.8,149.6 50.7,136 c 7.9,-13.6 23.7,-19.2 35.4,-12.5 11.7,6.8 14.8,23.3 6.9,36.9 -7.9,13.6 -23.7,19.2 -35.4,12.5 z"
   style="fill:#cc2455;fill-rule:nonzero"
   id="path434-2-2" />
            <path
   d="m 125.4,251.6 c -5.5,4 -12.2,6.3 -19.5,6.3 -7.3,0 -14,-2.3 -19.5,-6.3 -11.6,-8 0.1,-17.2 19.5,-17.2 19.4,0 31.1,9.2 19.5,17.2 z"
   style="fill:#cc2455;fill-rule:nonzero"
   id="path436-1-1" />
            <ellipse
   cx="105.9"
   cy="199"
   rx="27.1"
   ry="23.299999"
   style="fill:#cc2455"
   id="ellipse438-0-9" />
            <path
   d="m 118.7,160.4 c -7.9,-13.6 -4.8,-30.2 6.9,-36.9 11.7,-6.8 27.6,-1.2 35.4,12.5 7.9,13.6 4.8,30.2 -6.9,36.9 -11.7,6.7 -27.6,1.1 -35.4,-12.5 z"
   style="fill:#cc2455;fill-rule:nonzero"
   id="path440-5-7" />
            <path
   d="m 155.5,233.1 c -46.7,8.2 23,-78.2 25.1,-29.8 -0.5,13.6 -11.8,27 -25.1,29.8 z"
   style="fill:#cc2455;fill-rule:nonzero"
   id="path442-7-2" />
            <path
   d="m 195.5,172.1 c -3.7,8.8 -8.8,11.5 -12.9,3.4 -4.6,-9.9 -5.7,-22.5 -2.9,-33 2.2,-8 7.8,-8.4 13.3,1.1 5.1,8.4 5.9,19.4 2.5,28.5 z"
   style="fill:#cc2455;fill-rule:nonzero"
   id="path444-1-3" />
        </g></g></g></g></svg>
